<mxfile host="Electron" modified="2024-05-31T15:40:39.738Z" agent="Mozilla/5.0 (Windows NT 10.0; Win64; x64) AppleWebKit/537.36 (KHTML, like Gecko) draw.io/24.2.5 Chrome/120.0.6099.109 Electron/28.1.0 Safari/537.36" etag="dmJC_O1p6rSZsRdLbsZr" version="24.2.5" type="device">
  <diagram name="第 1 页" id="f2IaTn8hY0LGstJkgc5T">
    <mxGraphModel dx="2074" dy="1205" grid="1" gridSize="10" guides="1" tooltips="1" connect="1" arrows="1" fold="1" page="1" pageScale="1" pageWidth="827" pageHeight="1169" math="0" shadow="0">
      <root>
        <mxCell id="0" />
        <mxCell id="1" parent="0" />
        <mxCell id="xwYHXNzQOCbF4MfbJlyG-82" value="" style="rounded=0;whiteSpace=wrap;html=1;fillColor=#e1d5e7;strokeColor=#9673a6;" vertex="1" parent="1">
          <mxGeometry x="290" y="490" width="320" height="390" as="geometry" />
        </mxCell>
        <mxCell id="xwYHXNzQOCbF4MfbJlyG-1" value="" style="shape=table;startSize=0;container=1;collapsible=0;childLayout=tableLayout;fontSize=16;fillColor=#dae8fc;strokeColor=#6c8ebf;" vertex="1" parent="1">
          <mxGeometry x="320" y="550" width="260" height="260" as="geometry" />
        </mxCell>
        <mxCell id="xwYHXNzQOCbF4MfbJlyG-2" value="" style="shape=tableRow;horizontal=0;startSize=0;swimlaneHead=0;swimlaneBody=0;strokeColor=inherit;top=0;left=0;bottom=0;right=0;collapsible=0;dropTarget=0;fillColor=none;points=[[0,0.5],[1,0.5]];portConstraint=eastwest;fontSize=16;" vertex="1" parent="xwYHXNzQOCbF4MfbJlyG-1">
          <mxGeometry width="260" height="33" as="geometry" />
        </mxCell>
        <mxCell id="xwYHXNzQOCbF4MfbJlyG-3" value="" style="shape=partialRectangle;html=1;whiteSpace=wrap;connectable=0;strokeColor=inherit;overflow=hidden;fillColor=none;top=0;left=0;bottom=0;right=0;pointerEvents=1;fontSize=16;" vertex="1" parent="xwYHXNzQOCbF4MfbJlyG-2">
          <mxGeometry width="33" height="33" as="geometry">
            <mxRectangle width="33" height="33" as="alternateBounds" />
          </mxGeometry>
        </mxCell>
        <mxCell id="xwYHXNzQOCbF4MfbJlyG-4" value="" style="shape=partialRectangle;html=1;whiteSpace=wrap;connectable=0;strokeColor=inherit;overflow=hidden;fillColor=none;top=0;left=0;bottom=0;right=0;pointerEvents=1;fontSize=16;" vertex="1" parent="xwYHXNzQOCbF4MfbJlyG-2">
          <mxGeometry x="33" width="32" height="33" as="geometry">
            <mxRectangle width="32" height="33" as="alternateBounds" />
          </mxGeometry>
        </mxCell>
        <mxCell id="xwYHXNzQOCbF4MfbJlyG-5" value="" style="shape=partialRectangle;html=1;whiteSpace=wrap;connectable=0;strokeColor=inherit;overflow=hidden;fillColor=none;top=0;left=0;bottom=0;right=0;pointerEvents=1;fontSize=16;" vertex="1" parent="xwYHXNzQOCbF4MfbJlyG-2">
          <mxGeometry x="65" width="33" height="33" as="geometry">
            <mxRectangle width="33" height="33" as="alternateBounds" />
          </mxGeometry>
        </mxCell>
        <mxCell id="xwYHXNzQOCbF4MfbJlyG-14" style="shape=partialRectangle;html=1;whiteSpace=wrap;connectable=0;strokeColor=inherit;overflow=hidden;fillColor=none;top=0;left=0;bottom=0;right=0;pointerEvents=1;fontSize=16;" vertex="1" parent="xwYHXNzQOCbF4MfbJlyG-2">
          <mxGeometry x="98" width="32" height="33" as="geometry">
            <mxRectangle width="32" height="33" as="alternateBounds" />
          </mxGeometry>
        </mxCell>
        <mxCell id="xwYHXNzQOCbF4MfbJlyG-17" style="shape=partialRectangle;html=1;whiteSpace=wrap;connectable=0;strokeColor=inherit;overflow=hidden;fillColor=none;top=0;left=0;bottom=0;right=0;pointerEvents=1;fontSize=16;" vertex="1" parent="xwYHXNzQOCbF4MfbJlyG-2">
          <mxGeometry x="130" width="33" height="33" as="geometry">
            <mxRectangle width="33" height="33" as="alternateBounds" />
          </mxGeometry>
        </mxCell>
        <mxCell id="xwYHXNzQOCbF4MfbJlyG-20" style="shape=partialRectangle;html=1;whiteSpace=wrap;connectable=0;strokeColor=inherit;overflow=hidden;fillColor=none;top=0;left=0;bottom=0;right=0;pointerEvents=1;fontSize=16;" vertex="1" parent="xwYHXNzQOCbF4MfbJlyG-2">
          <mxGeometry x="163" width="32" height="33" as="geometry">
            <mxRectangle width="32" height="33" as="alternateBounds" />
          </mxGeometry>
        </mxCell>
        <mxCell id="xwYHXNzQOCbF4MfbJlyG-23" style="shape=partialRectangle;html=1;whiteSpace=wrap;connectable=0;strokeColor=inherit;overflow=hidden;fillColor=none;top=0;left=0;bottom=0;right=0;pointerEvents=1;fontSize=16;" vertex="1" parent="xwYHXNzQOCbF4MfbJlyG-2">
          <mxGeometry x="195" width="33" height="33" as="geometry">
            <mxRectangle width="33" height="33" as="alternateBounds" />
          </mxGeometry>
        </mxCell>
        <mxCell id="xwYHXNzQOCbF4MfbJlyG-26" style="shape=partialRectangle;html=1;whiteSpace=wrap;connectable=0;strokeColor=inherit;overflow=hidden;fillColor=none;top=0;left=0;bottom=0;right=0;pointerEvents=1;fontSize=16;" vertex="1" parent="xwYHXNzQOCbF4MfbJlyG-2">
          <mxGeometry x="228" width="32" height="33" as="geometry">
            <mxRectangle width="32" height="33" as="alternateBounds" />
          </mxGeometry>
        </mxCell>
        <mxCell id="xwYHXNzQOCbF4MfbJlyG-6" value="" style="shape=tableRow;horizontal=0;startSize=0;swimlaneHead=0;swimlaneBody=0;strokeColor=inherit;top=0;left=0;bottom=0;right=0;collapsible=0;dropTarget=0;fillColor=none;points=[[0,0.5],[1,0.5]];portConstraint=eastwest;fontSize=16;" vertex="1" parent="xwYHXNzQOCbF4MfbJlyG-1">
          <mxGeometry y="33" width="260" height="32" as="geometry" />
        </mxCell>
        <mxCell id="xwYHXNzQOCbF4MfbJlyG-7" value="" style="shape=partialRectangle;html=1;whiteSpace=wrap;connectable=0;strokeColor=inherit;overflow=hidden;fillColor=none;top=0;left=0;bottom=0;right=0;pointerEvents=1;fontSize=16;" vertex="1" parent="xwYHXNzQOCbF4MfbJlyG-6">
          <mxGeometry width="33" height="32" as="geometry">
            <mxRectangle width="33" height="32" as="alternateBounds" />
          </mxGeometry>
        </mxCell>
        <mxCell id="xwYHXNzQOCbF4MfbJlyG-8" value="" style="shape=partialRectangle;html=1;whiteSpace=wrap;connectable=0;strokeColor=inherit;overflow=hidden;fillColor=none;top=0;left=0;bottom=0;right=0;pointerEvents=1;fontSize=16;" vertex="1" parent="xwYHXNzQOCbF4MfbJlyG-6">
          <mxGeometry x="33" width="32" height="32" as="geometry">
            <mxRectangle width="32" height="32" as="alternateBounds" />
          </mxGeometry>
        </mxCell>
        <mxCell id="xwYHXNzQOCbF4MfbJlyG-9" value="" style="shape=partialRectangle;html=1;whiteSpace=wrap;connectable=0;strokeColor=inherit;overflow=hidden;fillColor=none;top=0;left=0;bottom=0;right=0;pointerEvents=1;fontSize=16;" vertex="1" parent="xwYHXNzQOCbF4MfbJlyG-6">
          <mxGeometry x="65" width="33" height="32" as="geometry">
            <mxRectangle width="33" height="32" as="alternateBounds" />
          </mxGeometry>
        </mxCell>
        <mxCell id="xwYHXNzQOCbF4MfbJlyG-15" style="shape=partialRectangle;html=1;whiteSpace=wrap;connectable=0;strokeColor=inherit;overflow=hidden;fillColor=none;top=0;left=0;bottom=0;right=0;pointerEvents=1;fontSize=16;" vertex="1" parent="xwYHXNzQOCbF4MfbJlyG-6">
          <mxGeometry x="98" width="32" height="32" as="geometry">
            <mxRectangle width="32" height="32" as="alternateBounds" />
          </mxGeometry>
        </mxCell>
        <mxCell id="xwYHXNzQOCbF4MfbJlyG-18" style="shape=partialRectangle;html=1;whiteSpace=wrap;connectable=0;strokeColor=inherit;overflow=hidden;fillColor=none;top=0;left=0;bottom=0;right=0;pointerEvents=1;fontSize=16;" vertex="1" parent="xwYHXNzQOCbF4MfbJlyG-6">
          <mxGeometry x="130" width="33" height="32" as="geometry">
            <mxRectangle width="33" height="32" as="alternateBounds" />
          </mxGeometry>
        </mxCell>
        <mxCell id="xwYHXNzQOCbF4MfbJlyG-21" style="shape=partialRectangle;html=1;whiteSpace=wrap;connectable=0;strokeColor=inherit;overflow=hidden;fillColor=none;top=0;left=0;bottom=0;right=0;pointerEvents=1;fontSize=16;" vertex="1" parent="xwYHXNzQOCbF4MfbJlyG-6">
          <mxGeometry x="163" width="32" height="32" as="geometry">
            <mxRectangle width="32" height="32" as="alternateBounds" />
          </mxGeometry>
        </mxCell>
        <mxCell id="xwYHXNzQOCbF4MfbJlyG-24" style="shape=partialRectangle;html=1;whiteSpace=wrap;connectable=0;strokeColor=inherit;overflow=hidden;fillColor=none;top=0;left=0;bottom=0;right=0;pointerEvents=1;fontSize=16;" vertex="1" parent="xwYHXNzQOCbF4MfbJlyG-6">
          <mxGeometry x="195" width="33" height="32" as="geometry">
            <mxRectangle width="33" height="32" as="alternateBounds" />
          </mxGeometry>
        </mxCell>
        <mxCell id="xwYHXNzQOCbF4MfbJlyG-27" style="shape=partialRectangle;html=1;whiteSpace=wrap;connectable=0;strokeColor=inherit;overflow=hidden;fillColor=none;top=0;left=0;bottom=0;right=0;pointerEvents=1;fontSize=16;" vertex="1" parent="xwYHXNzQOCbF4MfbJlyG-6">
          <mxGeometry x="228" width="32" height="32" as="geometry">
            <mxRectangle width="32" height="32" as="alternateBounds" />
          </mxGeometry>
        </mxCell>
        <mxCell id="xwYHXNzQOCbF4MfbJlyG-10" value="" style="shape=tableRow;horizontal=0;startSize=0;swimlaneHead=0;swimlaneBody=0;strokeColor=inherit;top=0;left=0;bottom=0;right=0;collapsible=0;dropTarget=0;fillColor=none;points=[[0,0.5],[1,0.5]];portConstraint=eastwest;fontSize=16;" vertex="1" parent="xwYHXNzQOCbF4MfbJlyG-1">
          <mxGeometry y="65" width="260" height="33" as="geometry" />
        </mxCell>
        <mxCell id="xwYHXNzQOCbF4MfbJlyG-11" value="" style="shape=partialRectangle;html=1;whiteSpace=wrap;connectable=0;strokeColor=inherit;overflow=hidden;fillColor=none;top=0;left=0;bottom=0;right=0;pointerEvents=1;fontSize=16;" vertex="1" parent="xwYHXNzQOCbF4MfbJlyG-10">
          <mxGeometry width="33" height="33" as="geometry">
            <mxRectangle width="33" height="33" as="alternateBounds" />
          </mxGeometry>
        </mxCell>
        <mxCell id="xwYHXNzQOCbF4MfbJlyG-12" value="" style="shape=partialRectangle;html=1;whiteSpace=wrap;connectable=0;strokeColor=inherit;overflow=hidden;fillColor=none;top=0;left=0;bottom=0;right=0;pointerEvents=1;fontSize=16;" vertex="1" parent="xwYHXNzQOCbF4MfbJlyG-10">
          <mxGeometry x="33" width="32" height="33" as="geometry">
            <mxRectangle width="32" height="33" as="alternateBounds" />
          </mxGeometry>
        </mxCell>
        <mxCell id="xwYHXNzQOCbF4MfbJlyG-13" value="" style="shape=partialRectangle;html=1;whiteSpace=wrap;connectable=0;strokeColor=inherit;overflow=hidden;fillColor=none;top=0;left=0;bottom=0;right=0;pointerEvents=1;fontSize=16;" vertex="1" parent="xwYHXNzQOCbF4MfbJlyG-10">
          <mxGeometry x="65" width="33" height="33" as="geometry">
            <mxRectangle width="33" height="33" as="alternateBounds" />
          </mxGeometry>
        </mxCell>
        <mxCell id="xwYHXNzQOCbF4MfbJlyG-16" style="shape=partialRectangle;html=1;whiteSpace=wrap;connectable=0;strokeColor=inherit;overflow=hidden;fillColor=none;top=0;left=0;bottom=0;right=0;pointerEvents=1;fontSize=16;" vertex="1" parent="xwYHXNzQOCbF4MfbJlyG-10">
          <mxGeometry x="98" width="32" height="33" as="geometry">
            <mxRectangle width="32" height="33" as="alternateBounds" />
          </mxGeometry>
        </mxCell>
        <mxCell id="xwYHXNzQOCbF4MfbJlyG-19" style="shape=partialRectangle;html=1;whiteSpace=wrap;connectable=0;strokeColor=inherit;overflow=hidden;fillColor=none;top=0;left=0;bottom=0;right=0;pointerEvents=1;fontSize=16;" vertex="1" parent="xwYHXNzQOCbF4MfbJlyG-10">
          <mxGeometry x="130" width="33" height="33" as="geometry">
            <mxRectangle width="33" height="33" as="alternateBounds" />
          </mxGeometry>
        </mxCell>
        <mxCell id="xwYHXNzQOCbF4MfbJlyG-22" style="shape=partialRectangle;html=1;whiteSpace=wrap;connectable=0;strokeColor=inherit;overflow=hidden;fillColor=none;top=0;left=0;bottom=0;right=0;pointerEvents=1;fontSize=16;" vertex="1" parent="xwYHXNzQOCbF4MfbJlyG-10">
          <mxGeometry x="163" width="32" height="33" as="geometry">
            <mxRectangle width="32" height="33" as="alternateBounds" />
          </mxGeometry>
        </mxCell>
        <mxCell id="xwYHXNzQOCbF4MfbJlyG-25" style="shape=partialRectangle;html=1;whiteSpace=wrap;connectable=0;strokeColor=inherit;overflow=hidden;fillColor=none;top=0;left=0;bottom=0;right=0;pointerEvents=1;fontSize=16;" vertex="1" parent="xwYHXNzQOCbF4MfbJlyG-10">
          <mxGeometry x="195" width="33" height="33" as="geometry">
            <mxRectangle width="33" height="33" as="alternateBounds" />
          </mxGeometry>
        </mxCell>
        <mxCell id="xwYHXNzQOCbF4MfbJlyG-28" style="shape=partialRectangle;html=1;whiteSpace=wrap;connectable=0;strokeColor=inherit;overflow=hidden;fillColor=none;top=0;left=0;bottom=0;right=0;pointerEvents=1;fontSize=16;" vertex="1" parent="xwYHXNzQOCbF4MfbJlyG-10">
          <mxGeometry x="228" width="32" height="33" as="geometry">
            <mxRectangle width="32" height="33" as="alternateBounds" />
          </mxGeometry>
        </mxCell>
        <mxCell id="xwYHXNzQOCbF4MfbJlyG-29" style="shape=tableRow;horizontal=0;startSize=0;swimlaneHead=0;swimlaneBody=0;strokeColor=inherit;top=0;left=0;bottom=0;right=0;collapsible=0;dropTarget=0;fillColor=none;points=[[0,0.5],[1,0.5]];portConstraint=eastwest;fontSize=16;" vertex="1" parent="xwYHXNzQOCbF4MfbJlyG-1">
          <mxGeometry y="98" width="260" height="32" as="geometry" />
        </mxCell>
        <mxCell id="xwYHXNzQOCbF4MfbJlyG-30" style="shape=partialRectangle;html=1;whiteSpace=wrap;connectable=0;strokeColor=inherit;overflow=hidden;fillColor=none;top=0;left=0;bottom=0;right=0;pointerEvents=1;fontSize=16;" vertex="1" parent="xwYHXNzQOCbF4MfbJlyG-29">
          <mxGeometry width="33" height="32" as="geometry">
            <mxRectangle width="33" height="32" as="alternateBounds" />
          </mxGeometry>
        </mxCell>
        <mxCell id="xwYHXNzQOCbF4MfbJlyG-31" style="shape=partialRectangle;html=1;whiteSpace=wrap;connectable=0;strokeColor=inherit;overflow=hidden;fillColor=none;top=0;left=0;bottom=0;right=0;pointerEvents=1;fontSize=16;" vertex="1" parent="xwYHXNzQOCbF4MfbJlyG-29">
          <mxGeometry x="33" width="32" height="32" as="geometry">
            <mxRectangle width="32" height="32" as="alternateBounds" />
          </mxGeometry>
        </mxCell>
        <mxCell id="xwYHXNzQOCbF4MfbJlyG-32" style="shape=partialRectangle;html=1;whiteSpace=wrap;connectable=0;strokeColor=inherit;overflow=hidden;fillColor=none;top=0;left=0;bottom=0;right=0;pointerEvents=1;fontSize=16;" vertex="1" parent="xwYHXNzQOCbF4MfbJlyG-29">
          <mxGeometry x="65" width="33" height="32" as="geometry">
            <mxRectangle width="33" height="32" as="alternateBounds" />
          </mxGeometry>
        </mxCell>
        <mxCell id="xwYHXNzQOCbF4MfbJlyG-33" style="shape=partialRectangle;html=1;whiteSpace=wrap;connectable=0;strokeColor=inherit;overflow=hidden;fillColor=none;top=0;left=0;bottom=0;right=0;pointerEvents=1;fontSize=16;" vertex="1" parent="xwYHXNzQOCbF4MfbJlyG-29">
          <mxGeometry x="98" width="32" height="32" as="geometry">
            <mxRectangle width="32" height="32" as="alternateBounds" />
          </mxGeometry>
        </mxCell>
        <mxCell id="xwYHXNzQOCbF4MfbJlyG-34" style="shape=partialRectangle;html=1;whiteSpace=wrap;connectable=0;strokeColor=inherit;overflow=hidden;fillColor=none;top=0;left=0;bottom=0;right=0;pointerEvents=1;fontSize=16;" vertex="1" parent="xwYHXNzQOCbF4MfbJlyG-29">
          <mxGeometry x="130" width="33" height="32" as="geometry">
            <mxRectangle width="33" height="32" as="alternateBounds" />
          </mxGeometry>
        </mxCell>
        <mxCell id="xwYHXNzQOCbF4MfbJlyG-35" style="shape=partialRectangle;html=1;whiteSpace=wrap;connectable=0;strokeColor=inherit;overflow=hidden;fillColor=none;top=0;left=0;bottom=0;right=0;pointerEvents=1;fontSize=16;" vertex="1" parent="xwYHXNzQOCbF4MfbJlyG-29">
          <mxGeometry x="163" width="32" height="32" as="geometry">
            <mxRectangle width="32" height="32" as="alternateBounds" />
          </mxGeometry>
        </mxCell>
        <mxCell id="xwYHXNzQOCbF4MfbJlyG-36" style="shape=partialRectangle;html=1;whiteSpace=wrap;connectable=0;strokeColor=inherit;overflow=hidden;fillColor=none;top=0;left=0;bottom=0;right=0;pointerEvents=1;fontSize=16;" vertex="1" parent="xwYHXNzQOCbF4MfbJlyG-29">
          <mxGeometry x="195" width="33" height="32" as="geometry">
            <mxRectangle width="33" height="32" as="alternateBounds" />
          </mxGeometry>
        </mxCell>
        <mxCell id="xwYHXNzQOCbF4MfbJlyG-37" style="shape=partialRectangle;html=1;whiteSpace=wrap;connectable=0;strokeColor=inherit;overflow=hidden;fillColor=none;top=0;left=0;bottom=0;right=0;pointerEvents=1;fontSize=16;" vertex="1" parent="xwYHXNzQOCbF4MfbJlyG-29">
          <mxGeometry x="228" width="32" height="32" as="geometry">
            <mxRectangle width="32" height="32" as="alternateBounds" />
          </mxGeometry>
        </mxCell>
        <mxCell id="xwYHXNzQOCbF4MfbJlyG-38" style="shape=tableRow;horizontal=0;startSize=0;swimlaneHead=0;swimlaneBody=0;strokeColor=inherit;top=0;left=0;bottom=0;right=0;collapsible=0;dropTarget=0;fillColor=none;points=[[0,0.5],[1,0.5]];portConstraint=eastwest;fontSize=16;" vertex="1" parent="xwYHXNzQOCbF4MfbJlyG-1">
          <mxGeometry y="130" width="260" height="33" as="geometry" />
        </mxCell>
        <mxCell id="xwYHXNzQOCbF4MfbJlyG-39" style="shape=partialRectangle;html=1;whiteSpace=wrap;connectable=0;strokeColor=inherit;overflow=hidden;fillColor=none;top=0;left=0;bottom=0;right=0;pointerEvents=1;fontSize=16;" vertex="1" parent="xwYHXNzQOCbF4MfbJlyG-38">
          <mxGeometry width="33" height="33" as="geometry">
            <mxRectangle width="33" height="33" as="alternateBounds" />
          </mxGeometry>
        </mxCell>
        <mxCell id="xwYHXNzQOCbF4MfbJlyG-40" style="shape=partialRectangle;html=1;whiteSpace=wrap;connectable=0;strokeColor=inherit;overflow=hidden;fillColor=none;top=0;left=0;bottom=0;right=0;pointerEvents=1;fontSize=16;" vertex="1" parent="xwYHXNzQOCbF4MfbJlyG-38">
          <mxGeometry x="33" width="32" height="33" as="geometry">
            <mxRectangle width="32" height="33" as="alternateBounds" />
          </mxGeometry>
        </mxCell>
        <mxCell id="xwYHXNzQOCbF4MfbJlyG-41" style="shape=partialRectangle;html=1;whiteSpace=wrap;connectable=0;strokeColor=inherit;overflow=hidden;fillColor=none;top=0;left=0;bottom=0;right=0;pointerEvents=1;fontSize=16;" vertex="1" parent="xwYHXNzQOCbF4MfbJlyG-38">
          <mxGeometry x="65" width="33" height="33" as="geometry">
            <mxRectangle width="33" height="33" as="alternateBounds" />
          </mxGeometry>
        </mxCell>
        <mxCell id="xwYHXNzQOCbF4MfbJlyG-42" style="shape=partialRectangle;html=1;whiteSpace=wrap;connectable=0;strokeColor=inherit;overflow=hidden;fillColor=none;top=0;left=0;bottom=0;right=0;pointerEvents=1;fontSize=16;" vertex="1" parent="xwYHXNzQOCbF4MfbJlyG-38">
          <mxGeometry x="98" width="32" height="33" as="geometry">
            <mxRectangle width="32" height="33" as="alternateBounds" />
          </mxGeometry>
        </mxCell>
        <mxCell id="xwYHXNzQOCbF4MfbJlyG-43" style="shape=partialRectangle;html=1;whiteSpace=wrap;connectable=0;strokeColor=inherit;overflow=hidden;fillColor=none;top=0;left=0;bottom=0;right=0;pointerEvents=1;fontSize=16;" vertex="1" parent="xwYHXNzQOCbF4MfbJlyG-38">
          <mxGeometry x="130" width="33" height="33" as="geometry">
            <mxRectangle width="33" height="33" as="alternateBounds" />
          </mxGeometry>
        </mxCell>
        <mxCell id="xwYHXNzQOCbF4MfbJlyG-44" style="shape=partialRectangle;html=1;whiteSpace=wrap;connectable=0;strokeColor=inherit;overflow=hidden;fillColor=none;top=0;left=0;bottom=0;right=0;pointerEvents=1;fontSize=16;" vertex="1" parent="xwYHXNzQOCbF4MfbJlyG-38">
          <mxGeometry x="163" width="32" height="33" as="geometry">
            <mxRectangle width="32" height="33" as="alternateBounds" />
          </mxGeometry>
        </mxCell>
        <mxCell id="xwYHXNzQOCbF4MfbJlyG-45" style="shape=partialRectangle;html=1;whiteSpace=wrap;connectable=0;strokeColor=inherit;overflow=hidden;fillColor=none;top=0;left=0;bottom=0;right=0;pointerEvents=1;fontSize=16;" vertex="1" parent="xwYHXNzQOCbF4MfbJlyG-38">
          <mxGeometry x="195" width="33" height="33" as="geometry">
            <mxRectangle width="33" height="33" as="alternateBounds" />
          </mxGeometry>
        </mxCell>
        <mxCell id="xwYHXNzQOCbF4MfbJlyG-46" style="shape=partialRectangle;html=1;whiteSpace=wrap;connectable=0;strokeColor=inherit;overflow=hidden;fillColor=none;top=0;left=0;bottom=0;right=0;pointerEvents=1;fontSize=16;" vertex="1" parent="xwYHXNzQOCbF4MfbJlyG-38">
          <mxGeometry x="228" width="32" height="33" as="geometry">
            <mxRectangle width="32" height="33" as="alternateBounds" />
          </mxGeometry>
        </mxCell>
        <mxCell id="xwYHXNzQOCbF4MfbJlyG-47" style="shape=tableRow;horizontal=0;startSize=0;swimlaneHead=0;swimlaneBody=0;strokeColor=inherit;top=0;left=0;bottom=0;right=0;collapsible=0;dropTarget=0;fillColor=none;points=[[0,0.5],[1,0.5]];portConstraint=eastwest;fontSize=16;" vertex="1" parent="xwYHXNzQOCbF4MfbJlyG-1">
          <mxGeometry y="163" width="260" height="32" as="geometry" />
        </mxCell>
        <mxCell id="xwYHXNzQOCbF4MfbJlyG-48" style="shape=partialRectangle;html=1;whiteSpace=wrap;connectable=0;strokeColor=inherit;overflow=hidden;fillColor=none;top=0;left=0;bottom=0;right=0;pointerEvents=1;fontSize=16;" vertex="1" parent="xwYHXNzQOCbF4MfbJlyG-47">
          <mxGeometry width="33" height="32" as="geometry">
            <mxRectangle width="33" height="32" as="alternateBounds" />
          </mxGeometry>
        </mxCell>
        <mxCell id="xwYHXNzQOCbF4MfbJlyG-49" style="shape=partialRectangle;html=1;whiteSpace=wrap;connectable=0;strokeColor=inherit;overflow=hidden;fillColor=none;top=0;left=0;bottom=0;right=0;pointerEvents=1;fontSize=16;" vertex="1" parent="xwYHXNzQOCbF4MfbJlyG-47">
          <mxGeometry x="33" width="32" height="32" as="geometry">
            <mxRectangle width="32" height="32" as="alternateBounds" />
          </mxGeometry>
        </mxCell>
        <mxCell id="xwYHXNzQOCbF4MfbJlyG-50" style="shape=partialRectangle;html=1;whiteSpace=wrap;connectable=0;strokeColor=inherit;overflow=hidden;fillColor=none;top=0;left=0;bottom=0;right=0;pointerEvents=1;fontSize=16;" vertex="1" parent="xwYHXNzQOCbF4MfbJlyG-47">
          <mxGeometry x="65" width="33" height="32" as="geometry">
            <mxRectangle width="33" height="32" as="alternateBounds" />
          </mxGeometry>
        </mxCell>
        <mxCell id="xwYHXNzQOCbF4MfbJlyG-51" style="shape=partialRectangle;html=1;whiteSpace=wrap;connectable=0;strokeColor=inherit;overflow=hidden;fillColor=none;top=0;left=0;bottom=0;right=0;pointerEvents=1;fontSize=16;" vertex="1" parent="xwYHXNzQOCbF4MfbJlyG-47">
          <mxGeometry x="98" width="32" height="32" as="geometry">
            <mxRectangle width="32" height="32" as="alternateBounds" />
          </mxGeometry>
        </mxCell>
        <mxCell id="xwYHXNzQOCbF4MfbJlyG-52" style="shape=partialRectangle;html=1;whiteSpace=wrap;connectable=0;strokeColor=inherit;overflow=hidden;fillColor=none;top=0;left=0;bottom=0;right=0;pointerEvents=1;fontSize=16;" vertex="1" parent="xwYHXNzQOCbF4MfbJlyG-47">
          <mxGeometry x="130" width="33" height="32" as="geometry">
            <mxRectangle width="33" height="32" as="alternateBounds" />
          </mxGeometry>
        </mxCell>
        <mxCell id="xwYHXNzQOCbF4MfbJlyG-53" style="shape=partialRectangle;html=1;whiteSpace=wrap;connectable=0;strokeColor=inherit;overflow=hidden;fillColor=none;top=0;left=0;bottom=0;right=0;pointerEvents=1;fontSize=16;" vertex="1" parent="xwYHXNzQOCbF4MfbJlyG-47">
          <mxGeometry x="163" width="32" height="32" as="geometry">
            <mxRectangle width="32" height="32" as="alternateBounds" />
          </mxGeometry>
        </mxCell>
        <mxCell id="xwYHXNzQOCbF4MfbJlyG-54" style="shape=partialRectangle;html=1;whiteSpace=wrap;connectable=0;strokeColor=inherit;overflow=hidden;fillColor=none;top=0;left=0;bottom=0;right=0;pointerEvents=1;fontSize=16;" vertex="1" parent="xwYHXNzQOCbF4MfbJlyG-47">
          <mxGeometry x="195" width="33" height="32" as="geometry">
            <mxRectangle width="33" height="32" as="alternateBounds" />
          </mxGeometry>
        </mxCell>
        <mxCell id="xwYHXNzQOCbF4MfbJlyG-55" style="shape=partialRectangle;html=1;whiteSpace=wrap;connectable=0;strokeColor=inherit;overflow=hidden;fillColor=none;top=0;left=0;bottom=0;right=0;pointerEvents=1;fontSize=16;" vertex="1" parent="xwYHXNzQOCbF4MfbJlyG-47">
          <mxGeometry x="228" width="32" height="32" as="geometry">
            <mxRectangle width="32" height="32" as="alternateBounds" />
          </mxGeometry>
        </mxCell>
        <mxCell id="xwYHXNzQOCbF4MfbJlyG-56" style="shape=tableRow;horizontal=0;startSize=0;swimlaneHead=0;swimlaneBody=0;strokeColor=inherit;top=0;left=0;bottom=0;right=0;collapsible=0;dropTarget=0;fillColor=none;points=[[0,0.5],[1,0.5]];portConstraint=eastwest;fontSize=16;" vertex="1" parent="xwYHXNzQOCbF4MfbJlyG-1">
          <mxGeometry y="195" width="260" height="33" as="geometry" />
        </mxCell>
        <mxCell id="xwYHXNzQOCbF4MfbJlyG-57" style="shape=partialRectangle;html=1;whiteSpace=wrap;connectable=0;strokeColor=inherit;overflow=hidden;fillColor=none;top=0;left=0;bottom=0;right=0;pointerEvents=1;fontSize=16;" vertex="1" parent="xwYHXNzQOCbF4MfbJlyG-56">
          <mxGeometry width="33" height="33" as="geometry">
            <mxRectangle width="33" height="33" as="alternateBounds" />
          </mxGeometry>
        </mxCell>
        <mxCell id="xwYHXNzQOCbF4MfbJlyG-58" style="shape=partialRectangle;html=1;whiteSpace=wrap;connectable=0;strokeColor=inherit;overflow=hidden;fillColor=none;top=0;left=0;bottom=0;right=0;pointerEvents=1;fontSize=16;" vertex="1" parent="xwYHXNzQOCbF4MfbJlyG-56">
          <mxGeometry x="33" width="32" height="33" as="geometry">
            <mxRectangle width="32" height="33" as="alternateBounds" />
          </mxGeometry>
        </mxCell>
        <mxCell id="xwYHXNzQOCbF4MfbJlyG-59" style="shape=partialRectangle;html=1;whiteSpace=wrap;connectable=0;strokeColor=inherit;overflow=hidden;fillColor=none;top=0;left=0;bottom=0;right=0;pointerEvents=1;fontSize=16;" vertex="1" parent="xwYHXNzQOCbF4MfbJlyG-56">
          <mxGeometry x="65" width="33" height="33" as="geometry">
            <mxRectangle width="33" height="33" as="alternateBounds" />
          </mxGeometry>
        </mxCell>
        <mxCell id="xwYHXNzQOCbF4MfbJlyG-60" style="shape=partialRectangle;html=1;whiteSpace=wrap;connectable=0;strokeColor=inherit;overflow=hidden;fillColor=none;top=0;left=0;bottom=0;right=0;pointerEvents=1;fontSize=16;" vertex="1" parent="xwYHXNzQOCbF4MfbJlyG-56">
          <mxGeometry x="98" width="32" height="33" as="geometry">
            <mxRectangle width="32" height="33" as="alternateBounds" />
          </mxGeometry>
        </mxCell>
        <mxCell id="xwYHXNzQOCbF4MfbJlyG-61" style="shape=partialRectangle;html=1;whiteSpace=wrap;connectable=0;strokeColor=inherit;overflow=hidden;fillColor=none;top=0;left=0;bottom=0;right=0;pointerEvents=1;fontSize=16;" vertex="1" parent="xwYHXNzQOCbF4MfbJlyG-56">
          <mxGeometry x="130" width="33" height="33" as="geometry">
            <mxRectangle width="33" height="33" as="alternateBounds" />
          </mxGeometry>
        </mxCell>
        <mxCell id="xwYHXNzQOCbF4MfbJlyG-62" style="shape=partialRectangle;html=1;whiteSpace=wrap;connectable=0;strokeColor=inherit;overflow=hidden;fillColor=none;top=0;left=0;bottom=0;right=0;pointerEvents=1;fontSize=16;" vertex="1" parent="xwYHXNzQOCbF4MfbJlyG-56">
          <mxGeometry x="163" width="32" height="33" as="geometry">
            <mxRectangle width="32" height="33" as="alternateBounds" />
          </mxGeometry>
        </mxCell>
        <mxCell id="xwYHXNzQOCbF4MfbJlyG-63" style="shape=partialRectangle;html=1;whiteSpace=wrap;connectable=0;strokeColor=inherit;overflow=hidden;fillColor=none;top=0;left=0;bottom=0;right=0;pointerEvents=1;fontSize=16;" vertex="1" parent="xwYHXNzQOCbF4MfbJlyG-56">
          <mxGeometry x="195" width="33" height="33" as="geometry">
            <mxRectangle width="33" height="33" as="alternateBounds" />
          </mxGeometry>
        </mxCell>
        <mxCell id="xwYHXNzQOCbF4MfbJlyG-64" style="shape=partialRectangle;html=1;whiteSpace=wrap;connectable=0;strokeColor=inherit;overflow=hidden;fillColor=none;top=0;left=0;bottom=0;right=0;pointerEvents=1;fontSize=16;" vertex="1" parent="xwYHXNzQOCbF4MfbJlyG-56">
          <mxGeometry x="228" width="32" height="33" as="geometry">
            <mxRectangle width="32" height="33" as="alternateBounds" />
          </mxGeometry>
        </mxCell>
        <mxCell id="xwYHXNzQOCbF4MfbJlyG-65" style="shape=tableRow;horizontal=0;startSize=0;swimlaneHead=0;swimlaneBody=0;strokeColor=inherit;top=0;left=0;bottom=0;right=0;collapsible=0;dropTarget=0;fillColor=none;points=[[0,0.5],[1,0.5]];portConstraint=eastwest;fontSize=16;" vertex="1" parent="xwYHXNzQOCbF4MfbJlyG-1">
          <mxGeometry y="228" width="260" height="32" as="geometry" />
        </mxCell>
        <mxCell id="xwYHXNzQOCbF4MfbJlyG-66" style="shape=partialRectangle;html=1;whiteSpace=wrap;connectable=0;strokeColor=inherit;overflow=hidden;fillColor=none;top=0;left=0;bottom=0;right=0;pointerEvents=1;fontSize=16;" vertex="1" parent="xwYHXNzQOCbF4MfbJlyG-65">
          <mxGeometry width="33" height="32" as="geometry">
            <mxRectangle width="33" height="32" as="alternateBounds" />
          </mxGeometry>
        </mxCell>
        <mxCell id="xwYHXNzQOCbF4MfbJlyG-67" style="shape=partialRectangle;html=1;whiteSpace=wrap;connectable=0;strokeColor=inherit;overflow=hidden;fillColor=none;top=0;left=0;bottom=0;right=0;pointerEvents=1;fontSize=16;" vertex="1" parent="xwYHXNzQOCbF4MfbJlyG-65">
          <mxGeometry x="33" width="32" height="32" as="geometry">
            <mxRectangle width="32" height="32" as="alternateBounds" />
          </mxGeometry>
        </mxCell>
        <mxCell id="xwYHXNzQOCbF4MfbJlyG-68" style="shape=partialRectangle;html=1;whiteSpace=wrap;connectable=0;strokeColor=inherit;overflow=hidden;fillColor=none;top=0;left=0;bottom=0;right=0;pointerEvents=1;fontSize=16;" vertex="1" parent="xwYHXNzQOCbF4MfbJlyG-65">
          <mxGeometry x="65" width="33" height="32" as="geometry">
            <mxRectangle width="33" height="32" as="alternateBounds" />
          </mxGeometry>
        </mxCell>
        <mxCell id="xwYHXNzQOCbF4MfbJlyG-69" style="shape=partialRectangle;html=1;whiteSpace=wrap;connectable=0;strokeColor=inherit;overflow=hidden;fillColor=none;top=0;left=0;bottom=0;right=0;pointerEvents=1;fontSize=16;" vertex="1" parent="xwYHXNzQOCbF4MfbJlyG-65">
          <mxGeometry x="98" width="32" height="32" as="geometry">
            <mxRectangle width="32" height="32" as="alternateBounds" />
          </mxGeometry>
        </mxCell>
        <mxCell id="xwYHXNzQOCbF4MfbJlyG-70" style="shape=partialRectangle;html=1;whiteSpace=wrap;connectable=0;strokeColor=inherit;overflow=hidden;fillColor=none;top=0;left=0;bottom=0;right=0;pointerEvents=1;fontSize=16;" vertex="1" parent="xwYHXNzQOCbF4MfbJlyG-65">
          <mxGeometry x="130" width="33" height="32" as="geometry">
            <mxRectangle width="33" height="32" as="alternateBounds" />
          </mxGeometry>
        </mxCell>
        <mxCell id="xwYHXNzQOCbF4MfbJlyG-71" style="shape=partialRectangle;html=1;whiteSpace=wrap;connectable=0;strokeColor=inherit;overflow=hidden;fillColor=none;top=0;left=0;bottom=0;right=0;pointerEvents=1;fontSize=16;" vertex="1" parent="xwYHXNzQOCbF4MfbJlyG-65">
          <mxGeometry x="163" width="32" height="32" as="geometry">
            <mxRectangle width="32" height="32" as="alternateBounds" />
          </mxGeometry>
        </mxCell>
        <mxCell id="xwYHXNzQOCbF4MfbJlyG-72" style="shape=partialRectangle;html=1;whiteSpace=wrap;connectable=0;strokeColor=inherit;overflow=hidden;fillColor=none;top=0;left=0;bottom=0;right=0;pointerEvents=1;fontSize=16;" vertex="1" parent="xwYHXNzQOCbF4MfbJlyG-65">
          <mxGeometry x="195" width="33" height="32" as="geometry">
            <mxRectangle width="33" height="32" as="alternateBounds" />
          </mxGeometry>
        </mxCell>
        <mxCell id="xwYHXNzQOCbF4MfbJlyG-73" style="shape=partialRectangle;html=1;whiteSpace=wrap;connectable=0;strokeColor=inherit;overflow=hidden;fillColor=none;top=0;left=0;bottom=0;right=0;pointerEvents=1;fontSize=16;" vertex="1" parent="xwYHXNzQOCbF4MfbJlyG-65">
          <mxGeometry x="228" width="32" height="32" as="geometry">
            <mxRectangle width="32" height="32" as="alternateBounds" />
          </mxGeometry>
        </mxCell>
        <mxCell id="xwYHXNzQOCbF4MfbJlyG-74" value="" style="ellipse;whiteSpace=wrap;html=1;aspect=fixed;opacity=50;" vertex="1" parent="1">
          <mxGeometry x="320" y="550" width="130" height="130" as="geometry" />
        </mxCell>
        <mxCell id="xwYHXNzQOCbF4MfbJlyG-75" value="" style="ellipse;whiteSpace=wrap;html=1;aspect=fixed;opacity=50;" vertex="1" parent="1">
          <mxGeometry x="450" y="550" width="130" height="130" as="geometry" />
        </mxCell>
        <mxCell id="xwYHXNzQOCbF4MfbJlyG-76" value="" style="ellipse;whiteSpace=wrap;html=1;aspect=fixed;opacity=50;" vertex="1" parent="1">
          <mxGeometry x="320" y="680" width="130" height="130" as="geometry" />
        </mxCell>
        <mxCell id="xwYHXNzQOCbF4MfbJlyG-77" value="" style="ellipse;whiteSpace=wrap;html=1;aspect=fixed;opacity=50;" vertex="1" parent="1">
          <mxGeometry x="450" y="680" width="130" height="130" as="geometry" />
        </mxCell>
        <mxCell id="xwYHXNzQOCbF4MfbJlyG-78" value="" style="ellipse;whiteSpace=wrap;html=1;aspect=fixed;fillColor=#d5e8d4;strokeColor=#82b366;" vertex="1" parent="1">
          <mxGeometry x="360" y="590" width="20" height="20" as="geometry" />
        </mxCell>
        <mxCell id="xwYHXNzQOCbF4MfbJlyG-79" value="" style="ellipse;whiteSpace=wrap;html=1;aspect=fixed;fillColor=#d5e8d4;strokeColor=#82b366;" vertex="1" parent="1">
          <mxGeometry x="520" y="620" width="20" height="20" as="geometry" />
        </mxCell>
        <mxCell id="xwYHXNzQOCbF4MfbJlyG-80" value="" style="ellipse;whiteSpace=wrap;html=1;aspect=fixed;fillColor=#d5e8d4;strokeColor=#82b366;" vertex="1" parent="1">
          <mxGeometry x="394" y="720" width="20" height="20" as="geometry" />
        </mxCell>
        <mxCell id="xwYHXNzQOCbF4MfbJlyG-81" value="" style="ellipse;whiteSpace=wrap;html=1;aspect=fixed;fillColor=#d5e8d4;strokeColor=#82b366;" vertex="1" parent="1">
          <mxGeometry x="490" y="760" width="20" height="20" as="geometry" />
        </mxCell>
        <mxCell id="xwYHXNzQOCbF4MfbJlyG-83" value="Tile(8X8)" style="text;html=1;align=center;verticalAlign=middle;whiteSpace=wrap;rounded=0;fontStyle=1;fontSize=20;" vertex="1" parent="1">
          <mxGeometry x="394" y="510" width="106" height="30" as="geometry" />
        </mxCell>
        <mxCell id="xwYHXNzQOCbF4MfbJlyG-84" value="Jittered Probe" style="text;html=1;align=center;verticalAlign=middle;whiteSpace=wrap;rounded=0;fontStyle=1;fontSize=20;" vertex="1" parent="1">
          <mxGeometry x="371.5" y="830" width="173" height="30" as="geometry" />
        </mxCell>
      </root>
    </mxGraphModel>
  </diagram>
</mxfile>
